{"title":"Haseena Mann Jayegi ( 1968 ) Hindi DvD 2CD Rip Xvid XMR@Mastitor","uid":6603424,"size":1492557824,"categoryP":"video","categoryS":"movies","magnet":"?xt=urn:btih:4e79bbd41bff62557f63035d842c077d2d2ce7a5&amp;dn=Haseena+Mann+Jayegi+%28+1968+%29+Hindi+DvD+2CD+Rip+Xvid+XMR%40Mastitor&amp;tr=udp%3A%2F%2Ftracker.openbittorrent.com%3A80&amp;tr=udp%3A%2F%2Fopen.demonii.com%3A1337&amp;tr=udp%3A%2F%2Ftracker.coppersurfer.tk%3A6969&amp;tr=udp%3A%2F%2Fexodus.desync.com%3A6969","seeders":0,"leechers":1,"uploader":"amanrulz","files":1,"time":1313311364,"description":"mastitorrents.com\n &lt;a href=&quot;\nhttp://mastitorrents.com/forums/index.php&quot; rel=&quot;nofollow&quot; target=&quot;_NEW&quot;&gt;\nhttp://mastitorrents.com/forums/index.php&lt;/a&gt;\n\n\nRipper                           : Rahul\nComplete name                    : Haseena Mann Jayegi ( 1968 )\nFormat                           : AVI\nFormat/Info                      : Audio Video Interleave\nFile size                        : 1.39 GiB\nDuration                         : 2h 45mn\nOverall bit rate                 : 1 201 Kbps\nWriting application              : VirtualDubMod 1.5.10.2 (build \n\nVideo\nID                               : 0\nFormat                           : MPEG-4 Visual\nFormat profile                   : Advanced Simple@L5\nFormat settings, BVOP            : 2\nFormat settings, QPel            : No\nFormat settings, GMC             : No warppoints\nFormat settings, Matrix          : Default (H.263)\nMuxing mode                      : Packed bitstream\nCodec ID                         : XVID\nCodec ID/Hint                    : XviD\nDuration                         : 2h 45mn\nBit rate                         : 1 062 Kbps\nWidth                            : 640 pixels\nHeight                           : 480 pixels\nDisplay aspect ratio             : 4:3\nFrame rate                       : 29.970 fps\nColor space                      : YUV\nChroma subsampling               : 4:2:0\nBit depth                        : 8 bits\nScan type                        : Progressive\nCompression mode                 : Lossy\nBits/(Pixel*Frame)               : 0.115\nStream size                      : 1.23 GiB (88%)\nWriting library                  : XviD 1.1.2 (UTC 2006-11-01)\n\nAudio\nID                               : 1\nFormat                           : MPEG Audio\nFormat version                   : Version 1\nFormat profile                   : Layer 3\nMode                             : Dual mono\nCodec ID                         : 55\nCodec ID/Hint                    : MP3\nDuration                         : 2h 45mn\nBit rate mode                    : Constant\nBit rate                         : 128 Kbps\nChannel(s)                       : 2 channels\nSampling rate                    : 48.0 KHz\nCompression mode                 : Lossy\nStream size                      : 152 MiB (11%)\nAlignment                        : Aligned on interleaves\nInterleave, duration             : 33 ms (1.00 video frame)\nInterleave, preload duration     : 504 ms\n\n","torrent":{"xt":"urn:btih:4e79bbd41bff62557f63035d842c077d2d2ce7a5","amp;dn":"Haseena+Mann+Jayegi+%28+1968+%29+Hindi+DvD+2CD+Rip+Xvid+XMR%40Mastitor","amp;tr":["udp%3A%2F%2Ftracker.openbittorrent.com%3A80","udp%3A%2F%2Fopen.demonii.com%3A1337","udp%3A%2F%2Ftracker.coppersurfer.tk%3A6969","udp%3A%2F%2Fexodus.desync.com%3A6969"],"infoHash":"4e79bbd41bff62557f63035d842c077d2d2ce7a5","infoHashBuffer":{"type":"Buffer","data":[78,121,187,212,27,255,98,85,127,99,3,93,132,44,7,125,45,44,231,165]},"announce":[],"urlList":[]}}